<?xml version="1.0" encoding="UTF-8"?>
<svg width="800" height="600" viewBox="0 0 800 600" fill="none" xmlns="http://www.w3.org/2000/svg">
    <!-- Background -->
    <rect width="800" height="600" fill="#f8fafc"/>
    
    <!-- Window frame -->
    <rect x="100" y="50" width="600" height="500" rx="12" fill="white" stroke="#e2e8f0" stroke-width="2"/>
    
    <!-- Title bar -->
    <rect x="100" y="50" width="600" height="40" rx="12" fill="#1e293b"/>
    <circle cx="130" cy="70" r="6" fill="#ef4444"/>
    <circle cx="150" cy="70" r="6" fill="#f59e0b"/>
    <circle cx="170" cy="70" r="6" fill="#10b981"/>
    
    <!-- Sidebar -->
    <rect x="100" y="90" width="200" height="460" fill="#f1f5f9"/>
    
    <!-- Sidebar items -->
    <rect x="120" y="110" width="160" height="40" rx="6" fill="white"/>
    <rect x="120" y="160" width="160" height="40" rx="6" fill="white"/>
    <rect x="120" y="210" width="160" height="40" rx="6" fill="white"/>
    
    <!-- Main content area -->
    <rect x="320" y="110" width="360" height="200" rx="8" fill="#6366f1" fill-opacity="0.1"/>
    
    <!-- Chart -->
    <path d="M340 260L420 200L500 240L580 180" stroke="#6366f1" stroke-width="3" stroke-linecap="round"/>
    
    <!-- Cards -->
    <rect x="320" y="330" width="170" height="100" rx="8" fill="white" stroke="#e2e8f0" stroke-width="2"/>
    <rect x="510" y="330" width="170" height="100" rx="8" fill="white" stroke="#e2e8f0" stroke-width="2"/>
    <rect x="320" y="450" width="360" height="80" rx="8" fill="white" stroke="#e2e8f0" stroke-width="2"/>
    
    <!-- Decorative elements -->
    <circle cx="405" cy="380" r="25" fill="#6366f1" fill-opacity="0.2"/>
    <circle cx="595" cy="380" r="25" fill="#6366f1" fill-opacity="0.2"/>
    
    <!-- Text lines -->
    <rect x="340" y="470" width="100" height="8" rx="4" fill="#64748b"/>
    <rect x="340" y="490" width="200" height="8" rx="4" fill="#94a3b8"/>
</svg> 